<mxfile host="app.diagrams.net" modified="2024-04-12T02:56:16.220Z" agent="Mozilla/5.0 (Windows NT 10.0; Win64; x64) AppleWebKit/537.36 (KHTML, like Gecko) Chrome/123.0.0.0 Safari/537.36" etag="qWAp3JE-cmDlK68zE34A" version="24.2.3" type="device">
  <diagram name="Page-1" id="hznN793LizdsqVVcD3gy">
    <mxGraphModel dx="1900" dy="583" grid="1" gridSize="10" guides="1" tooltips="1" connect="1" arrows="1" fold="1" page="1" pageScale="1" pageWidth="850" pageHeight="1100" math="0" shadow="0">
      <root>
        <mxCell id="0" />
        <mxCell id="1" parent="0" />
        <mxCell id="_HjAysld2YytPHcP_J0--6" style="edgeStyle=orthogonalEdgeStyle;rounded=0;orthogonalLoop=1;jettySize=auto;html=1;entryX=0.5;entryY=0;entryDx=0;entryDy=0;" edge="1" parent="1" source="_HjAysld2YytPHcP_J0--1" target="_HjAysld2YytPHcP_J0--2">
          <mxGeometry relative="1" as="geometry" />
        </mxCell>
        <mxCell id="_HjAysld2YytPHcP_J0--7" style="edgeStyle=orthogonalEdgeStyle;rounded=0;orthogonalLoop=1;jettySize=auto;html=1;entryX=0.5;entryY=0;entryDx=0;entryDy=0;" edge="1" parent="1" source="_HjAysld2YytPHcP_J0--1" target="_HjAysld2YytPHcP_J0--3">
          <mxGeometry relative="1" as="geometry" />
        </mxCell>
        <mxCell id="_HjAysld2YytPHcP_J0--8" style="edgeStyle=orthogonalEdgeStyle;rounded=0;orthogonalLoop=1;jettySize=auto;html=1;entryX=0.5;entryY=0;entryDx=0;entryDy=0;" edge="1" parent="1" source="_HjAysld2YytPHcP_J0--1" target="_HjAysld2YytPHcP_J0--4">
          <mxGeometry relative="1" as="geometry" />
        </mxCell>
        <mxCell id="_HjAysld2YytPHcP_J0--1" value="Root Servers" style="rounded=1;whiteSpace=wrap;html=1;fillColor=#f8cecc;gradientColor=#ea6b66;strokeColor=#b85450;" vertex="1" parent="1">
          <mxGeometry x="330" y="80" width="120" height="60" as="geometry" />
        </mxCell>
        <mxCell id="_HjAysld2YytPHcP_J0--2" value="&lt;b&gt;.com&lt;/b&gt;" style="rounded=0;whiteSpace=wrap;html=1;" vertex="1" parent="1">
          <mxGeometry x="30" y="230" width="120" height="60" as="geometry" />
        </mxCell>
        <mxCell id="_HjAysld2YytPHcP_J0--3" value="&lt;b&gt;.org&lt;/b&gt;" style="rounded=0;whiteSpace=wrap;html=1;" vertex="1" parent="1">
          <mxGeometry x="220" y="230" width="120" height="60" as="geometry" />
        </mxCell>
        <mxCell id="_HjAysld2YytPHcP_J0--4" value="&lt;b&gt;.net&lt;/b&gt;" style="rounded=0;whiteSpace=wrap;html=1;" vertex="1" parent="1">
          <mxGeometry x="410" y="230" width="120" height="60" as="geometry" />
        </mxCell>
        <mxCell id="_HjAysld2YytPHcP_J0--5" value="&lt;b&gt;.edu&lt;/b&gt;" style="rounded=0;whiteSpace=wrap;html=1;" vertex="1" parent="1">
          <mxGeometry x="600" y="230" width="120" height="60" as="geometry" />
        </mxCell>
        <mxCell id="_HjAysld2YytPHcP_J0--9" style="edgeStyle=orthogonalEdgeStyle;rounded=0;orthogonalLoop=1;jettySize=auto;html=1;entryX=0.563;entryY=0;entryDx=0;entryDy=0;entryPerimeter=0;" edge="1" parent="1" source="_HjAysld2YytPHcP_J0--1" target="_HjAysld2YytPHcP_J0--5">
          <mxGeometry relative="1" as="geometry" />
        </mxCell>
        <mxCell id="_HjAysld2YytPHcP_J0--10" value="&lt;b&gt;ICANN&lt;/b&gt;" style="text;html=1;align=center;verticalAlign=middle;resizable=0;points=[];autosize=1;strokeColor=none;fillColor=none;" vertex="1" parent="1">
          <mxGeometry x="350" y="48" width="60" height="30" as="geometry" />
        </mxCell>
        <mxCell id="_HjAysld2YytPHcP_J0--11" value="&lt;b&gt;verisign&lt;/b&gt;" style="text;html=1;align=center;verticalAlign=middle;resizable=0;points=[];autosize=1;strokeColor=none;fillColor=none;" vertex="1" parent="1">
          <mxGeometry x="85" y="188" width="70" height="30" as="geometry" />
        </mxCell>
        <mxCell id="_HjAysld2YytPHcP_J0--15" style="edgeStyle=orthogonalEdgeStyle;rounded=0;orthogonalLoop=1;jettySize=auto;html=1;" edge="1" parent="1" source="_HjAysld2YytPHcP_J0--12" target="_HjAysld2YytPHcP_J0--14">
          <mxGeometry relative="1" as="geometry" />
        </mxCell>
        <mxCell id="_HjAysld2YytPHcP_J0--19" style="edgeStyle=orthogonalEdgeStyle;rounded=0;orthogonalLoop=1;jettySize=auto;html=1;entryX=0;entryY=0.5;entryDx=0;entryDy=0;" edge="1" parent="1" source="_HjAysld2YytPHcP_J0--12" target="_HjAysld2YytPHcP_J0--16">
          <mxGeometry relative="1" as="geometry" />
        </mxCell>
        <mxCell id="_HjAysld2YytPHcP_J0--12" value="&lt;b&gt;Browser&lt;/b&gt;" style="rounded=0;whiteSpace=wrap;html=1;fillColor=#dae8fc;gradientColor=#7ea6e0;strokeColor=#6c8ebf;" vertex="1" parent="1">
          <mxGeometry x="-30" y="480" width="120" height="60" as="geometry" />
        </mxCell>
        <mxCell id="_HjAysld2YytPHcP_J0--14" value="&lt;b&gt;Cache&lt;/b&gt;" style="ellipse;whiteSpace=wrap;html=1;fillColor=#d5e8d4;gradientColor=#97d077;strokeColor=#82b366;" vertex="1" parent="1">
          <mxGeometry x="40" y="390" width="80" height="50" as="geometry" />
        </mxCell>
        <mxCell id="_HjAysld2YytPHcP_J0--18" style="edgeStyle=orthogonalEdgeStyle;rounded=0;orthogonalLoop=1;jettySize=auto;html=1;" edge="1" parent="1" source="_HjAysld2YytPHcP_J0--16" target="_HjAysld2YytPHcP_J0--17">
          <mxGeometry relative="1" as="geometry" />
        </mxCell>
        <mxCell id="_HjAysld2YytPHcP_J0--24" style="edgeStyle=orthogonalEdgeStyle;rounded=0;orthogonalLoop=1;jettySize=auto;html=1;" edge="1" parent="1" source="_HjAysld2YytPHcP_J0--16" target="_HjAysld2YytPHcP_J0--20">
          <mxGeometry relative="1" as="geometry" />
        </mxCell>
        <mxCell id="_HjAysld2YytPHcP_J0--16" value="&lt;b&gt;OS&lt;/b&gt;" style="rounded=0;whiteSpace=wrap;html=1;fillColor=#d5e8d4;gradientColor=#97d077;strokeColor=#82b366;" vertex="1" parent="1">
          <mxGeometry x="130" y="480" width="120" height="60" as="geometry" />
        </mxCell>
        <mxCell id="_HjAysld2YytPHcP_J0--17" value="&lt;b&gt;Cache&lt;/b&gt;" style="ellipse;whiteSpace=wrap;html=1;fillColor=#d5e8d4;gradientColor=#97d077;strokeColor=#82b366;" vertex="1" parent="1">
          <mxGeometry x="180" y="390" width="80" height="50" as="geometry" />
        </mxCell>
        <mxCell id="_HjAysld2YytPHcP_J0--25" style="edgeStyle=orthogonalEdgeStyle;rounded=0;orthogonalLoop=1;jettySize=auto;html=1;entryX=0;entryY=0.5;entryDx=0;entryDy=0;" edge="1" parent="1" source="_HjAysld2YytPHcP_J0--20" target="_HjAysld2YytPHcP_J0--23">
          <mxGeometry relative="1" as="geometry" />
        </mxCell>
        <mxCell id="_HjAysld2YytPHcP_J0--28" style="edgeStyle=orthogonalEdgeStyle;rounded=0;orthogonalLoop=1;jettySize=auto;html=1;entryX=0.5;entryY=0;entryDx=0;entryDy=0;" edge="1" parent="1" source="_HjAysld2YytPHcP_J0--20" target="_HjAysld2YytPHcP_J0--27">
          <mxGeometry relative="1" as="geometry" />
        </mxCell>
        <mxCell id="_HjAysld2YytPHcP_J0--20" value="&lt;b&gt;ISP Resolver&lt;/b&gt;" style="rounded=0;whiteSpace=wrap;html=1;fillColor=#f8cecc;gradientColor=#ea6b66;strokeColor=#b85450;" vertex="1" parent="1">
          <mxGeometry x="290" y="480" width="120" height="60" as="geometry" />
        </mxCell>
        <mxCell id="_HjAysld2YytPHcP_J0--21" value="&lt;b&gt;Cache&lt;/b&gt;" style="ellipse;whiteSpace=wrap;html=1;fillColor=#d5e8d4;gradientColor=#97d077;strokeColor=#82b366;" vertex="1" parent="1">
          <mxGeometry x="345" y="400" width="80" height="50" as="geometry" />
        </mxCell>
        <mxCell id="_HjAysld2YytPHcP_J0--22" style="edgeStyle=orthogonalEdgeStyle;rounded=0;orthogonalLoop=1;jettySize=auto;html=1;entryX=0.368;entryY=0.984;entryDx=0;entryDy=0;entryPerimeter=0;" edge="1" parent="1" source="_HjAysld2YytPHcP_J0--20" target="_HjAysld2YytPHcP_J0--21">
          <mxGeometry relative="1" as="geometry" />
        </mxCell>
        <mxCell id="_HjAysld2YytPHcP_J0--23" value="&lt;b&gt;Root Servers&lt;/b&gt;" style="rounded=0;whiteSpace=wrap;html=1;fillColor=#f8cecc;gradientColor=#ea6b66;strokeColor=#b85450;" vertex="1" parent="1">
          <mxGeometry x="450" y="480" width="120" height="60" as="geometry" />
        </mxCell>
        <mxCell id="_HjAysld2YytPHcP_J0--26" value="&lt;b&gt;daws78s.online&lt;/b&gt;" style="text;html=1;align=center;verticalAlign=middle;resizable=0;points=[];autosize=1;strokeColor=none;fillColor=none;" vertex="1" parent="1">
          <mxGeometry x="-25" y="540" width="110" height="30" as="geometry" />
        </mxCell>
        <mxCell id="_HjAysld2YytPHcP_J0--39" style="edgeStyle=orthogonalEdgeStyle;rounded=0;orthogonalLoop=1;jettySize=auto;html=1;entryX=0.5;entryY=0;entryDx=0;entryDy=0;exitX=0.5;exitY=1;exitDx=0;exitDy=0;" edge="1" parent="1" source="_HjAysld2YytPHcP_J0--20" target="_HjAysld2YytPHcP_J0--38">
          <mxGeometry relative="1" as="geometry" />
        </mxCell>
        <mxCell id="_HjAysld2YytPHcP_J0--27" value="&lt;b&gt;.online TLD&lt;/b&gt;" style="rounded=0;whiteSpace=wrap;html=1;fillColor=#fff2cc;gradientColor=#ffd966;strokeColor=#d6b656;" vertex="1" parent="1">
          <mxGeometry x="210" y="590" width="120" height="60" as="geometry" />
        </mxCell>
        <mxCell id="_HjAysld2YytPHcP_J0--29" style="edgeStyle=orthogonalEdgeStyle;rounded=0;orthogonalLoop=1;jettySize=auto;html=1;entryX=0.978;entryY=0.664;entryDx=0;entryDy=0;entryPerimeter=0;" edge="1" parent="1" source="_HjAysld2YytPHcP_J0--23" target="_HjAysld2YytPHcP_J0--21">
          <mxGeometry relative="1" as="geometry" />
        </mxCell>
        <mxCell id="_HjAysld2YytPHcP_J0--33" style="edgeStyle=orthogonalEdgeStyle;rounded=0;orthogonalLoop=1;jettySize=auto;html=1;" edge="1" parent="1" source="_HjAysld2YytPHcP_J0--30" target="_HjAysld2YytPHcP_J0--27">
          <mxGeometry relative="1" as="geometry" />
        </mxCell>
        <mxCell id="_HjAysld2YytPHcP_J0--37" style="edgeStyle=orthogonalEdgeStyle;rounded=0;orthogonalLoop=1;jettySize=auto;html=1;" edge="1" parent="1" source="_HjAysld2YytPHcP_J0--30" target="_HjAysld2YytPHcP_J0--36">
          <mxGeometry relative="1" as="geometry" />
        </mxCell>
        <mxCell id="_HjAysld2YytPHcP_J0--30" value="&lt;b&gt;Hostinger&lt;/b&gt;" style="ellipse;whiteSpace=wrap;html=1;aspect=fixed;fillColor=#ffcd28;gradientColor=#ffa500;strokeColor=#d79b00;" vertex="1" parent="1">
          <mxGeometry x="20" y="580" width="80" height="80" as="geometry" />
        </mxCell>
        <mxCell id="_HjAysld2YytPHcP_J0--32" style="edgeStyle=orthogonalEdgeStyle;rounded=0;orthogonalLoop=1;jettySize=auto;html=1;" edge="1" parent="1" source="_HjAysld2YytPHcP_J0--31" target="_HjAysld2YytPHcP_J0--30">
          <mxGeometry relative="1" as="geometry" />
        </mxCell>
        <mxCell id="_HjAysld2YytPHcP_J0--31" value="" style="html=1;verticalLabelPosition=bottom;align=center;labelBackgroundColor=#ffffff;verticalAlign=top;strokeWidth=2;strokeColor=#0080F0;shadow=0;dashed=0;shape=mxgraph.ios7.icons.user;" vertex="1" parent="1">
          <mxGeometry x="-160" y="575" width="90" height="90" as="geometry" />
        </mxCell>
        <mxCell id="_HjAysld2YytPHcP_J0--34" value="&lt;b&gt;daws78s.online&lt;/b&gt;" style="text;html=1;align=center;verticalAlign=middle;resizable=0;points=[];autosize=1;strokeColor=none;fillColor=none;" vertex="1" parent="1">
          <mxGeometry x="85" y="580" width="110" height="30" as="geometry" />
        </mxCell>
        <mxCell id="_HjAysld2YytPHcP_J0--35" value="&lt;b&gt;name&lt;/b&gt;&lt;div&gt;&lt;b&gt;address&lt;/b&gt;&lt;/div&gt;&lt;div&gt;&lt;b&gt;nameservers&lt;/b&gt;&lt;/div&gt;" style="text;html=1;align=center;verticalAlign=middle;resizable=0;points=[];autosize=1;strokeColor=none;fillColor=none;" vertex="1" parent="1">
          <mxGeometry x="100" y="615" width="100" height="60" as="geometry" />
        </mxCell>
        <mxCell id="_HjAysld2YytPHcP_J0--36" value="Amazon Route 53" style="sketch=0;outlineConnect=0;fontColor=#232F3E;gradientColor=none;strokeColor=#ffffff;fillColor=#232F3E;dashed=0;verticalLabelPosition=middle;verticalAlign=bottom;align=center;html=1;whiteSpace=wrap;fontSize=10;fontStyle=1;spacing=3;shape=mxgraph.aws4.productIcon;prIcon=mxgraph.aws4.route_53;" vertex="1" parent="1">
          <mxGeometry x="20" y="710" width="80" height="110" as="geometry" />
        </mxCell>
        <mxCell id="_HjAysld2YytPHcP_J0--38" value="&lt;b&gt;Route53&lt;/b&gt;" style="rounded=0;whiteSpace=wrap;html=1;fillColor=#f5f5f5;gradientColor=#b3b3b3;strokeColor=#666666;" vertex="1" parent="1">
          <mxGeometry x="290" y="700" width="120" height="60" as="geometry" />
        </mxCell>
        <mxCell id="_HjAysld2YytPHcP_J0--41" style="edgeStyle=orthogonalEdgeStyle;rounded=0;orthogonalLoop=1;jettySize=auto;html=1;entryX=0.823;entryY=1.06;entryDx=0;entryDy=0;entryPerimeter=0;" edge="1" parent="1" source="_HjAysld2YytPHcP_J0--38" target="_HjAysld2YytPHcP_J0--20">
          <mxGeometry relative="1" as="geometry" />
        </mxCell>
        <mxCell id="_HjAysld2YytPHcP_J0--42" value="&lt;b&gt;IP Address&lt;/b&gt;" style="text;html=1;align=center;verticalAlign=middle;resizable=0;points=[];autosize=1;strokeColor=none;fillColor=none;" vertex="1" parent="1">
          <mxGeometry x="360" y="630" width="90" height="30" as="geometry" />
        </mxCell>
        <mxCell id="_HjAysld2YytPHcP_J0--43" value="" style="shape=cylinder3;whiteSpace=wrap;html=1;boundedLbl=1;backgroundOutline=1;size=15;" vertex="1" parent="1">
          <mxGeometry x="450" y="850" width="80" height="110" as="geometry" />
        </mxCell>
        <mxCell id="_HjAysld2YytPHcP_J0--44" value="&lt;b&gt;OS&lt;/b&gt;" style="ellipse;whiteSpace=wrap;html=1;aspect=fixed;" vertex="1" parent="1">
          <mxGeometry x="170" y="865" width="80" height="80" as="geometry" />
        </mxCell>
        <mxCell id="_HjAysld2YytPHcP_J0--45" style="edgeStyle=orthogonalEdgeStyle;rounded=0;orthogonalLoop=1;jettySize=auto;html=1;entryX=0;entryY=0.5;entryDx=0;entryDy=0;entryPerimeter=0;" edge="1" parent="1" source="_HjAysld2YytPHcP_J0--44" target="_HjAysld2YytPHcP_J0--43">
          <mxGeometry relative="1" as="geometry" />
        </mxCell>
        <mxCell id="_HjAysld2YytPHcP_J0--46" value="" style="ellipse;whiteSpace=wrap;html=1;" vertex="1" parent="1">
          <mxGeometry x="460" y="890" width="20" height="20" as="geometry" />
        </mxCell>
        <mxCell id="_HjAysld2YytPHcP_J0--47" value="" style="ellipse;whiteSpace=wrap;html=1;" vertex="1" parent="1">
          <mxGeometry x="490" y="890" width="20" height="20" as="geometry" />
        </mxCell>
        <mxCell id="_HjAysld2YytPHcP_J0--48" value="" style="ellipse;whiteSpace=wrap;html=1;" vertex="1" parent="1">
          <mxGeometry x="460" y="920" width="20" height="20" as="geometry" />
        </mxCell>
        <mxCell id="_HjAysld2YytPHcP_J0--49" value="" style="ellipse;whiteSpace=wrap;html=1;" vertex="1" parent="1">
          <mxGeometry x="490" y="920" width="20" height="20" as="geometry" />
        </mxCell>
      </root>
    </mxGraphModel>
  </diagram>
</mxfile>
